<!-- <svg xmlns="http://www.w3.org/2000/svg" viewBox="0 0 1440 320">
<path fill="#93C5FD" fill-opacity="1" d="M0,192L48,202.7C96,213,192,235,288,234.7C384,235,480,213,576,186.7C672,160,768,128,864,117.3C960,107,1056,117,1152,112C1248,107,1344,85,1392,74.7L1440,64L1440,0L1392,0C1344,0,1248,0,1152,0C1056,0,960,0,864,0C768,0,672,0,576,0C480,0,384,0,288,0C192,0,96,0,48,0L0,0Z">
</path>
</svg> -->

<!-- <svg xmlns="http://www.w3.org/2000/svg" viewBox="0 0 1440 320">
<path fill="#93C5FD" fill-opacity="1" d="M0,288L120,261.3C240,235,480,181,720,181.3C960,181,1200,235,1320,261.3L1440,288L1440,0L1320,0C1200,0,960,0,720,0C480,0,240,0,120,0L0,0Z">
</path>
</svg> -->

<svg xmlns="http://www.w3.org/2000/svg" viewBox="0 0 1440 320">
    <path fill="#0099ff" fill-opacity="0.8" d="M0,288L120,261.3C240,235,480,181,720,181.3C960,181,1200,235,1320,261.3L1440,288L1440,0L1320,0C1200,0,960,0,720,0C480,0,240,0,120,0L0,0Z">
    </path>
</svg>